<svg xmlns="http://www.w3.org/2000/svg" version="1.1" xmlns:xlink="http://www.w3.org/1999/xlink" xmlns:svgjs="http://svgjs.dev/svgjs" width="1500" height="1500" viewBox="0 0 1500 1500"><rect width="1500" height="1500" fill="#ffffff"></rect><g transform="matrix(0.6666666666666666,0,0,0.6666666666666666,250.00007343750008,187.66666666666674)"><svg viewBox="0 0 320 360" data-background-color="#ffffff" preserveAspectRatio="xMidYMid meet" height="1687" width="1500" xmlns="http://www.w3.org/2000/svg" xmlns:xlink="http://www.w3.org/1999/xlink"><g id="tight-bounds" transform="matrix(1,0,0,1,0.000023499999997511622,0)"><svg viewBox="0 0 320 360" height="360" width="320"><g><svg></svg></g><g><svg viewBox="0 0 320 360" height="360" width="320"><g><path transform="translate(-74.99272,-51.79039) scale(4.65793,4.65793)" d="M20.6 59.9l0.8 1-0.4-1.3c-0.1-0.6-0.8 0.1-0.4 0.3M21.5 59.3c0.3 0.5 0.6 1 0.6 1.5 0 0.7 0.6 1 1.1 1.2-0.7-0.8-1.1-3-1.7-2.7M59.9 16.9c1.7 0 3.3-0.2 5.1 0.2 4.4 1.1 8.1 3.3 10.6 6.4l7 11.2c0.3 2.8 0.9 5.9 0.8 9.3 0.7 0 0.6-1 1.4-1.2-0.8 2-1.2 4.5-1.4 7.4-0.5-1.6 0-4 0.1-5.3-0.7 1.1-1.1 0.3-1.1-0.2 0.1-0.8-0.3-0.7-0.6-1-1.1-1-1.8-2.1-2.6-3.8 0.5-1.3 0.6-3.2-1-4.2-0.5-0.3-1.1-0.8-1.4-1.6-0.4-1.1-1.1-2.4-0.9-4.1 0.1-0.5-1.5 1.1-2.4 0.4-3.9-2.7-7.8-5.8-12.5-8.4-2.5 0-4.3-0.9-5.2-2-0.8-1-0.2-2.3 1-2.4 0.7 0 1.5-0.2 2.1 0.2 0.1-0.4 0.5-0.9 1-0.9M50 14.6l0.2 0.1c1 0.2 1.5 1.6 2.6 1.1 0 0.7 0.1 1.4-0.1 1.9-0.3 0.8-1.2 0.8-1.9 0.8-6.7-0.4-10.6 2.4-14.7 4.8-1.1 0.7-2.3 1.2-3.2 2.1-4.3 4-9 7.7-10.1 15.1l-0.9 8.2c-0.1 0.9-1.1 1.8-0.9 2.9l0.7 4.9c-0.7-0.7-1.1 0.2-0.9 0.6 0.1 0.3 0.5 1.3 1.1 0.4 0.8 1.5 1.6 4.4 2.7 5.7 3.4 4 7.8 7.6 11.4 11.2 0.9-0.2 1.6-0.2 1.8-0.8 0.3 0.6-0.3 1.2-0.8 1.3 1.6 1 3.4 1.9 5.8 2.1 3.1 0.2 6 0.7 8.7 1.4 1.4-0.4 2.8-0.6 4.3-0.7 0.5 0 0.8-0.8 1.4-1l0.1-1c0.6 0.9 0.5-0.3 0.1-0.9 0.7 0.6 0.9 1.1 1.2 1.5 0-0.3 0.8-1.4 0.8-0.1l0.2-1.3c0.3-0.2 0.4 1.1 0.7 0.2 0.3-0.9 0.9-0.2 1.5-0.5-0.2 0.4-0.1 1.2 0.6 0.7l0.8-0.7c0.5 1.2 1.3 0.7 1.7 0.5 4.4-2.8 8.8-6.1 13-9.4l-0.1 1.3 0.5-1.6c0.5 0.5 0.9 0.1 1.1-0.2 0.6-1 1.4-2 2.7-2.9-1.6 4.3-3.5 7.7-5.9 10.5l-1 1.2c0 0.7-0.2 1.6-1 1.7-0.4 0.1-1.2-0.2-1.8 0.4-0.3 0.4 0.7 1.2-0.1 0.6-0.7-0.5-1.4 0-2.2 0.2-0.6 0.2 0.4 0.8 0.6 1.2 0.2 0.4 0.4 0.8 0.3 1.3l-1.1-1.2c-1.3 0.7-2.1 2-3.2 3-0.5 0.4-0.3 1.1-0.3 1.7-0.7 0-1.5-0.2-1.9 0.2-0.3 0.4-0.2 1-0.2 1.6-1-0.1-1.1-1.6-2-1.3-0.9 0.2-1.9 0.3-2.7 0.8 0.6 1.2-1 0.5-0.8 0.7-1.5-0.9-2.8-1.6-4.4-1-3.4-1.1-7.6-0.6-10.7-0.2 0-0.5 0.1-1-0.1-1.1-0.2 0.5-0.8 0.3-0.7 0.3-1.9-1.3-3.8-2.1-5.8-3.2-1.8 0.2-3.5-0.7-4-1.2-1.4-1.3-3-0.6-4.3-0.9-2.8-0.7-3.8-3.6-4.1-5.6-0.2-1-1-1.4-1.3-1.3-1.3-4.2-3.3-8-4.9-11.9-0.4-1-0.3-2-0.3-3.1 0.5 0.2 1 0.1 0.9-0.6-0.5-3.3-1.7-5.8-3-8.2 0.7-3.4 0.8-7.4 2.4-10.4 1.4-2.7 4-4.1 5.8-6.4 0.6-0.8 0.6-1.9 1.2-2.6 2-2 4-4.1 6.2-5.9 1-0.8 2.2 0 3.7-0.3 0.5-1.8 2.5-3.4 4.4-2.9 0.8 0.2 2.4-1.9 2.9-2.1 0.8-0.3 0.4 0.8 0.4 1.5 1.9-1.5 4.5-2.3 6.9-3.2" fill="#301c3b" fill-rule="nonzero" stroke="none" stroke-width="1" stroke-linecap="butt" stroke-linejoin="miter" stroke-miterlimit="10" stroke-dasharray="" stroke-dashoffset="0" font-family="none" font-weight="none" font-size="none" text-anchor="none" style="mix-blend-mode: normal" data-fill-palette-color="tertiary"></path></g><g transform="matrix(1,0,0,1,70.08999999999999,90.08999999999999)"><svg viewBox="0 0 179.82000000000002 179.82000000000002" height="179.82000000000002" width="179.82000000000002"><g><svg viewBox="0 0 179.82000000000002 179.82000000000002" height="179.82000000000002" width="179.82000000000002"><g><svg viewBox="0 0 179.82000000000002 179.82000000000002" height="179.82000000000002" width="179.82000000000002"><g id="textblocktransform"><svg viewBox="0 0 179.82000000000002 179.82000000000002" height="179.82000000000002" width="179.82000000000002" id="textblock"><g><svg viewBox="0 0 179.82000000000002 179.82000000000002" height="179.82000000000002" width="179.82000000000002"><g transform="matrix(1,0,0,1,36.93002441959793,36.93002441959793)"><svg viewBox="0 0 105.95995116080417 105.95995116080417" height="105.95995116080417" width="105.95995116080417"><g id="icon-0"><circle r="53" cx="52.97997558040208" cy="52.97997558040208" fill="#f3f3b7" data-fill-palette-color="accent"></circle><svg xmlns="http://www.w3.org/2000/svg" viewBox="2.0462879792511073 2.4372233117615503 27.585488708987345 27.609089681582915" x="15.893992674120625" y="15.893992674120625" height="74.17196581256292" width="74.17196581256292" class="icon-jxe-0" data-fill-palette-color="quaternary" id="jxe-0"><g fill="#ffffff" data-fill-palette-color="quaternary"><path d="M29.528 5.07L21.967 27.753A1.99 1.99 0 0 1 20.07 29.12H20.04A1.99 1.99 0 0 1 18.153 27.694L15.301 18.182 22.74 10.742A1 1 0 1 0 21.327 9.326L13.887 16.768 4.374 13.914A2 2 0 0 1 4.316 10.101L26.999 2.54A2 2 0 0 1 29.529 5.07M8.741 17.327A1 1 0 0 0 7.327 17.327L2.327 22.327A1 1 0 0 0 3.741 23.741L8.741 18.741A1 1 0 0 0 8.741 17.327M14.741 23.327A1 1 0 0 0 13.327 23.327L8.327 28.327A1 1 0 1 0 9.741 29.741L14.741 24.741A1 1 0 0 0 14.741 23.327M9.702 22.288A1 1 0 0 0 8.288 22.298L3.322 27.332A1 1 0 1 0 4.746 28.736L9.712 23.702A1 1 0 0 0 9.702 22.288" fill="#ffffff" data-fill-palette-color="quaternary"></path></g></svg></g></svg></g><g id="text-0"><path d="M15.478 54.682v0c0.939 0.351 1.793 0.862 2.563 1.533 0.768 0.677 1.414 1.489 1.938 2.437 0.525 0.948 0.809 2.064 0.853 3.349 0.046 1.279-0.197 2.63-0.729 4.054v0c-0.047 0.124-0.181 0.475-0.404 1.051-0.225 0.582-0.535 1.384-0.931 2.405-0.39 1.024-0.808 2.133-1.255 3.327v0l-0.42-0.157c0.407-1.45 0.295-2.363-0.336-2.741v0l-13.133-4.912c-0.231-0.065-0.447-0.075-0.648-0.029-0.207 0.043-0.398 0.174-0.572 0.392-0.17 0.227-0.288 0.392-0.355 0.494-0.067 0.103-0.184 0.321-0.351 0.656v0l-0.467-0.175c0.384-1.026 0.874-2.366 1.472-4.021 0.598-1.655 0.978-2.7 1.141-3.135v0c0.319-0.852 0.79-1.647 1.413-2.385 0.623-0.738 1.404-1.396 2.343-1.973 0.939-0.577 2.096-0.896 3.472-0.956 1.376-0.06 2.845 0.203 4.406 0.786zM14.576 57.577v0c-0.05-0.019-0.103-0.038-0.159-0.059v0c-1.368-0.512-2.544-0.856-3.526-1.032-0.981-0.182-1.913-0.191-2.798-0.025-0.884 0.166-1.642 0.58-2.273 1.244-0.637 0.662-1.18 1.593-1.629 2.793v0c-0.193 0.516-0.37 1.074-0.53 1.673v0c0.448 0.167 1.228 0.459 2.341 0.876v0c0.958 0.358 2.59 0.969 4.897 1.831 2.307 0.863 3.871 1.448 4.692 1.755v0c1.001 0.374 1.642 0.614 1.922 0.718v0c0.33 0.123 0.679 0.098 1.049-0.075 0.374-0.165 0.638-0.456 0.794-0.873v0c0.474-1.269 0.732-2.356 0.773-3.262 0.039-0.9-0.166-1.689-0.614-2.366-0.451-0.672-1.059-1.243-1.826-1.714-0.764-0.477-1.802-0.972-3.113-1.484z" fill="#301c3b" data-fill-palette-color="primary"></path><path d="M13.669 40.568l3.366-4.002c9.649 2.382 14.764 3.665 15.345 3.849v0l-6.44-13.828 3.011-3.718 0.419 0.368c-0.143 0.193-0.308 0.436-0.496 0.731-0.183 0.29-0.353 0.644-0.509 1.064-0.156 0.419-0.152 0.701 0.013 0.846v0l10.763 9.446 0.436 0.092c0.295 0.056 0.586 0.037 0.871-0.057v0c0.294-0.113 0.595-0.33 0.903-0.652v0l0.396-0.541 0.381 0.335c-0.731 0.772-1.571 1.699-2.521 2.783v0c-1.064 1.212-1.859 2.158-2.384 2.837v0l-0.329-0.29c0.026-0.03 0.158-0.21 0.395-0.54 0.247-0.331 0.393-0.609 0.44-0.834v0c0.163-0.528 0.105-0.915-0.175-1.16v0l-9.46-8.303 6.595 14.481-0.295 0.337-15.607-3.973c0 0 1.834 1.609 5.501 4.829v0c1.572 1.38 2.749 2.413 3.533 3.1v0c0.249 0.219 0.43 0.355 0.541 0.41 0.116 0.049 0.253 0.049 0.41 0.001 0.152-0.052 0.293-0.083 0.424-0.091v0c0.382-0.204 0.773-0.523 1.173-0.958v0c0.013-0.015 0.033-0.037 0.059-0.068 0.022-0.025 0.039-0.045 0.052-0.06v0l0.382 0.335c-0.645 0.644-1.316 1.363-2.012 2.157v0c-0.771 0.878-1.422 1.676-1.954 2.392v0l-0.329-0.289 0.631-0.93c0.406-0.633 0.603-1.1 0.593-1.401v0c0.008-0.17-0.034-0.344-0.126-0.521v0l-0.157-0.244c0.026-0.03-3.229-2.913-9.765-8.65v0c-0.48-0.298-1.093-0.315-1.838-0.05-0.745 0.256-1.364 0.623-1.855 1.102v0z" fill="#301c3b" data-fill-palette-color="primary"></path><path d="M44.889 11.182v0c1.234-0.717 2.55-0.871 3.947-0.462v0c0.372-0.285 0.498-0.808 0.379-1.568v0l0.335-0.195 2.638 4.698c0 0-0.152 0.088-0.456 0.265v0c-0.375-0.527-0.75-1.019-1.124-1.477-0.374-0.458-0.804-0.796-1.29-1.013v0c-1.392-0.665-2.795-0.587-4.207 0.234v0c-0.752 0.437-1.225 1.103-1.419 1.999-0.188 0.892-0.102 1.649 0.259 2.268v0c0.394 0.677 1.084 1.125 2.07 1.343 0.986 0.218 2.12 0.212 3.399-0.018v0c1.775-0.302 3.354-0.287 4.738 0.046 1.383 0.333 2.384 1.03 3.001 2.092v0c0.791 1.36 0.985 2.726 0.583 4.096-0.408 1.373-1.653 2.665-3.737 3.876v0c-0.448 0.26-0.907 0.462-1.377 0.604-0.476 0.146-0.887 0.224-1.235 0.234-0.347 0.01-0.688 0.012-1.021 0.006-0.343-0.008-0.597-0.029-0.763-0.064v0c-0.238 0.33-0.345 0.834-0.32 1.511v0l-0.499 0.29-2.499-4.399 0.482-0.281c1.039 1.154 2.1 1.897 3.184 2.228 1.08 0.34 2.287 0.123 3.618-0.651v0c2.244-1.304 2.738-3.038 1.48-5.203v0c-0.821-1.412-2.658-1.846-5.512-1.3v0c-1.546 0.299-2.927 0.249-4.142-0.15-1.215-0.4-2.093-1.064-2.633-1.995v0c-1.692-2.872-0.985-5.21 2.121-7.014z" fill="#301c3b" data-fill-palette-color="primary"></path><path d="M83.079 17.333l0.085 0.389-4.934 0.981c-0.016-0.071-0.031-0.143-0.046-0.214v0c-0.145-0.668-0.663-1.863-1.554-3.585v0c-1.493-2.869-2.929-4.16-4.308-3.874v0l-1.826 0.366 1.484 6.73c0.059 0.272 0.127 0.492 0.204 0.659 0.076 0.16 0.201 0.299 0.376 0.417 0.174 0.112 0.397 0.138 0.67 0.079v0c0.802-0.154 1.205-0.221 1.209-0.202v0l0.083 0.522c-1.029 0.142-2.387 0.397-4.073 0.764v0c-1.336 0.291-2.362 0.544-3.076 0.76v0l-0.101-0.467c1.414-0.308 2.112-0.677 2.093-1.107v0c0.008-0.307-0.026-0.633-0.101-0.977v0c-0.326-1.845-0.793-4.162-1.399-6.952v0c-0.901-4.145-1.435-6.428-1.601-6.847v0c-0.083-0.193-0.454-0.292-1.114-0.298v0l-1.03 0-0.108-0.496c1.079-0.194 2.351-0.45 3.818-0.769v0c0.597-0.13 1.348-0.3 2.253-0.511 0.9-0.203 1.477-0.331 1.73-0.386v0c0.694-0.151 1.42-0.142 2.177 0.026 0.757 0.168 1.458 0.532 2.102 1.092 0.638 0.561 1.051 1.27 1.237 2.126v0c0.2 0.921-0.059 1.854-0.778 2.798-0.725 0.946-1.691 1.567-2.896 1.863v0c0.571-0.063 1.121-0.016 1.65 0.141 0.525 0.164 0.964 0.358 1.319 0.579 0.355 0.228 0.742 0.583 1.158 1.063 0.417 0.48 0.719 0.87 0.907 1.169 0.187 0.299 0.47 0.74 0.848 1.324v0c0.881 1.364 1.426 2.136 1.635 2.314v0c0.525 0.477 1.161 0.651 1.907 0.523zM71.841 3.053v0c-0.422-0.003-0.931 0.06-1.528 0.189v0c-0.545 0.118-1.039 0.253-1.482 0.404v0l1.543 7.094c1.237-0.249 1.865-0.375 1.884-0.379v0c1.012-0.22 1.71-0.742 2.095-1.566 0.378-0.823 0.461-1.724 0.248-2.704v0c-0.181-0.83-0.526-1.543-1.036-2.139-0.509-0.589-1.083-0.889-1.724-0.899z" fill="#301c3b" data-fill-palette-color="primary"></path><path d="M98.387 0.026v0c1.424 0.1 2.599 0.711 3.525 1.835v0c0.468-0.027 0.866-0.389 1.194-1.085v0l0.388 0.028-0.456 5.368c0 0-0.175-0.012-0.527-0.037v0c-0.015-0.647-0.048-1.265-0.1-1.853-0.052-0.589-0.218-1.11-0.499-1.563v0c-0.778-1.332-1.982-2.056-3.612-2.17v0c-0.868-0.061-1.633 0.225-2.296 0.858-0.657 0.633-1.01 1.307-1.06 2.022v0c-0.055 0.781 0.265 1.539 0.959 2.273 0.694 0.734 1.635 1.366 2.822 1.895v0c1.638 0.747 2.936 1.647 3.894 2.699 0.958 1.052 1.394 2.191 1.308 3.416v0c-0.11 1.57-0.716 2.808-1.818 3.716-1.108 0.907-2.865 1.277-5.269 1.108v0c-0.517-0.036-1.009-0.127-1.478-0.273-0.476-0.146-0.86-0.313-1.153-0.5-0.293-0.187-0.576-0.376-0.849-0.569-0.279-0.199-0.477-0.36-0.595-0.481v0c-0.382 0.14-0.754 0.496-1.113 1.07v0l-0.576-0.04 0.403-5.043 0.556 0.039c0.212 1.539 0.673 2.749 1.383 3.631 0.703 0.888 1.823 1.386 3.36 1.493v0c2.59 0.181 3.972-0.976 4.146-3.473v0c0.114-1.629-1.163-3.02-3.83-4.172v0c-1.447-0.621-2.561-1.437-3.343-2.45-0.781-1.013-1.134-2.056-1.058-3.129v0c0.213-3.326 2.111-4.864 5.694-4.613z" fill="#301c3b" data-fill-palette-color="primary"></path><path d="M115.018 18.075v0c0.456 0.144 0.828 0.421 1.116 0.832 0.288 0.411 0.339 0.911 0.154 1.5v0c-0.2 0.633-0.516 1.042-0.95 1.225-0.44 0.182-0.923 0.189-1.448 0.024v0c-0.443-0.14-0.787-0.45-1.033-0.931-0.25-0.489-0.299-0.971-0.15-1.447v0c0.174-0.551 0.496-0.923 0.968-1.115 0.471-0.193 0.919-0.222 1.343-0.088z" fill="#301c3b" data-fill-palette-color="primary"></path><path d="M144.451 20.571l-0.713 0.132-6.599 2.632c0 0 0.012 1.078 0.037 3.234v0c0.008 2.145 0.05 3.913 0.125 5.304v0c0.059 1.073 0.175 1.732 0.348 1.978v0c0.284 0.404 0.745 0.934 1.382 1.589v0l-0.211 0.326c-0.692-0.532-1.794-1.286-3.306-2.26v0c-1.602-1.032-2.766-1.738-3.492-2.119v0l0.286-0.443c0.971 0.515 1.552 0.711 1.741 0.588v0c0.106-0.066 0.204-0.169 0.294-0.308v0c0.162-0.251 0.249-0.472 0.26-0.662v0c0.008-1.14-0.005-2.597-0.038-4.372-0.039-1.778-0.064-2.659-0.075-2.642v0c-1.078 0.411-2.078 0.798-2.998 1.16-0.919 0.372-1.611 0.644-2.078 0.817-0.467 0.173-0.87 0.32-1.209 0.442-0.344 0.118-0.569 0.202-0.673 0.253-0.113 0.053-0.191 0.094-0.232 0.123-0.042 0.028-0.072 0.056-0.09 0.084v0c-0.191 0.296-0.16 0.592 0.091 0.888v0l1.148 1.308-0.211 0.327c-0.697-0.536-1.498-1.095-2.402-1.678v0c-0.915-0.59-1.744-1.08-2.487-1.472v0l0.286-0.444c0.663 0.38 1.277 0.574 1.841 0.582v0c0.197 0.001 0.521-0.055 0.972-0.167v0l0.74-0.175 7.328-2.695-0.145-8.362c-0.026-0.499-0.246-1.181-0.66-2.048v0c-0.055-0.123-0.171-0.268-0.346-0.436-0.181-0.172-0.377-0.346-0.589-0.522-0.213-0.184-0.336-0.288-0.369-0.309v0l0.226-0.351c0.692 0.532 1.824 1.306 3.399 2.319v0c1.702 1.097 2.916 1.835 3.642 2.216v0l-0.302 0.469c-0.927-0.486-1.511-0.677-1.752-0.572v0c-0.122 0.079-0.228 0.189-0.318 0.328v0c-0.079 0.123-0.138 0.251-0.176 0.384v0l-0.052 0.192-0.151 6.394c3.342-1.29 5.295-2.046 5.856-2.269 0.562-0.222 0.868-0.373 0.918-0.45v0c0.191-0.296 0.164-0.597-0.08-0.905v0l-1.155-1.278 0.226-0.351c0.692 0.532 1.489 1.09 2.394 1.672v0c0.921 0.593 1.75 1.084 2.487 1.472v0l-0.302 0.469c-0.654-0.382-1.261-0.587-1.819-0.615v0c-0.201 0.005-0.533 0.079-0.997 0.223z" fill="#301c3b" data-fill-palette-color="primary"></path><path d="M153.426 41.747v0c1.537-2.814 2.756-5.791 3.656-8.931v0c0.202-0.699 0.256-1.274 0.163-1.725v0c-0.106-0.5-0.294-1.023-0.564-1.571v0l0.329-0.259c0.484 0.734 1.252 1.769 2.303 3.105v0c1.125 1.43 1.968 2.443 2.53 3.04v0l-0.438 0.344c-0.713-0.757-1.203-1.127-1.47-1.111v0c-0.204 0.042-0.417 0.13-0.642 0.264v0l-0.303 0.162c-1.14 2.502-2.181 4.959-3.121 7.371v0c5.44-0.858 8.268-1.36 8.484-1.504v0c0.204-0.16 0.223-0.446 0.06-0.858v0l-0.682-1.592 0.328-0.259c0.48 0.729 1.053 1.516 1.718 2.362v0c0.677 0.861 1.303 1.598 1.878 2.21v0l-0.438 0.344c-0.498-0.58-1.005-0.971-1.52-1.174v0c-0.195-0.066-0.495-0.113-0.897-0.143v0l-0.603-0.057c-4.329 0.618-7.07 1.063-8.223 1.336v0c-0.553 0.435-2.38 1.919-5.482 4.452v0c-0.365 0.287-0.078 1.028 0.862 2.223v0l-0.415 0.326-4.679-5.948 0.352-0.278c0.037 0.047 0.101 0.128 0.191 0.243v0c0.85 1.08 1.448 1.497 1.794 1.25v0c1.722-1.312 3.332-2.519 4.829-3.622z" fill="#301c3b" data-fill-palette-color="primary"></path><path d="M157.015 60.021l0.417-0.165c6.697 1.467 13.139 2.642 19.326 3.525v0l-2.512-6.064c-0.129-0.327-0.33-0.591-0.602-0.791-0.268-0.208-0.531-0.351-0.789-0.426-0.265-0.074-0.594-0.112-0.987-0.114-0.402-0.005-0.695 0.003-0.879 0.026-0.178 0.02-0.437 0.059-0.779 0.115v0l-0.194-0.491 3.784-1.398c0.526 1.62 1.181 3.424 1.967 5.412v0c0.612 1.55 1.553 3.787 2.822 6.712v0l-0.565 0.223-15.894-2.695c-1.455-0.196-2.405-0.207-2.85-0.031v0c-0.173 0.068-0.233 0.17-0.178 0.306v0c1.212 3.069 2.03 4.987 2.454 5.755v0c0.227 0.431 0.859 0.756 1.895 0.975 1.03 0.221 1.925 0.239 2.687 0.053v0l0.227 0.574-4.393 1.05c-0.752-1.994-1.51-3.958-2.273-5.891v0c-0.456-1.155-1.351-3.375-2.684-6.66z" fill="#301c3b" data-fill-palette-color="primary"></path><path d="M7.12 93.126c0-1.149 0.931-2.08 2.081-2.081 1.149 0 2.08 0.931 2.08 2.081 0 1.149-0.931 2.08-2.08 2.08-1.149 0-2.08-0.931-2.081-2.08z" fill="#301c3b" data-fill-palette-color="primary"></path><path d="M168.291 93.126c0-1.149 0.931-2.08 2.08-2.081 1.149 0 2.08 0.931 2.081 2.081 0 1.149-0.931 2.08-2.081 2.08-1.149 0-2.08-0.931-2.08-2.08z" fill="#301c3b" data-fill-palette-color="primary"></path></g><g id="text-1"><path d="M29.87 127.253l-0.575 0.224c-0.115-0.24-0.252-0.504-0.414-0.791-0.163-0.293-0.374-0.588-0.632-0.887-0.261-0.305-0.487-0.42-0.679-0.345v0c-0.588 0.192-2.21 0.793-4.866 1.801v0l-10.482 4.15-0.356-0.919 4.914-7.684c3.285-5.098 4.986-7.783 5.1-8.055v0c-1.497 0.566-2.718 1.033-3.665 1.4v0c-1.188 0.461-2.319 0.924-3.392 1.389-1.066 0.463-2.407 1.008-4.023 1.635v0c-0.316 0.122-0.665 0.258-1.049 0.407v0c-0.718 0.278-0.958 0.724-0.721 1.337v0c0.386 0.997 0.565 1.511 0.535 1.544v0l-0.473 0.184c-0.278-0.882-0.627-1.865-1.047-2.948v0c-0.47-1.213-0.902-2.224-1.294-3.034v0l0.418-0.162c0 0 0.02 0.053 0.061 0.158v0c0.557 1.436 1.053 2.119 1.489 2.05v0c5.252-1.937 8.326-3.079 9.224-3.427v0c1.349-0.523 2.902-1.147 4.658-1.87v0c0.18-0.105 0.283-0.619 0.31-1.541v0l0.017-1.363 0.473-0.184 1.859 4.876c-1.035 1.591-2.639 4.167-4.811 7.73v0l-3.227 5.395 9.97-3.844c0.243-0.108 0.357-0.402 0.342-0.881-0.015-0.479-0.135-1.009-0.36-1.59v0c-0.048-0.124-0.098-0.254-0.151-0.39v0l0.582-0.29c0.199 0.77 0.51 1.7 0.932 2.79v0c0.386 0.997 0.831 2.042 1.333 3.135z" fill="#301c3b" data-fill-palette-color="primary"></path><path d="M36.411 138.509v0c-0.016 0.012-0.436 0.326-1.262 0.94-0.827 0.624-1.858 1.401-3.095 2.331-1.238 0.939-2.363 1.795-3.375 2.57v0c-2.03 1.553-3.468 2.679-4.314 3.376v0c-0.424 0.341-0.207 1.074 0.653 2.196v0l-0.338 0.297c-0.351-0.492-0.795-1.088-1.332-1.79v0c-1.235-1.613-2.315-2.965-3.24-4.054v0l0.356-0.273c0 0 0.022 0.029 0.067 0.087v0c0.847 1.107 1.464 1.559 1.851 1.355v0c0.505-0.269 4.63-3.367 12.376-9.294v0c0.163-0.125 0.1-0.503-0.191-1.133v0l-0.471-0.944 0.332-0.254c0.479 0.746 1.139 1.669 1.983 2.772v0c0.88 1.149 1.594 2.024 2.145 2.622v0l-0.451 0.345c-0.861-0.972-1.425-1.355-1.694-1.149z" fill="#301c3b" data-fill-palette-color="primary"></path><path d="M45.683 152.758l-3.275 4.758c-0.579 0.835-0.998 1.614-1.258 2.339-0.256 0.719-0.377 1.33-0.362 1.833 0.015 0.503 0.147 0.982 0.397 1.438 0.24 0.457 0.505 0.827 0.794 1.109 0.284 0.278 0.642 0.566 1.073 0.865v0c0.606 0.42 1.182 0.702 1.728 0.846 0.548 0.154 1.13 0.182 1.747 0.084 0.617-0.097 1.253-0.415 1.909-0.954 0.662-0.535 1.337-1.299 2.026-2.292v0c0.117-0.169 0.263-0.379 0.437-0.63 0.178-0.256 0.416-0.6 0.714-1.031v0c1.479-2.133 2.978-4.366 4.498-6.698v0c0.09-0.188-0.138-0.564-0.684-1.128v0l-0.836-0.822 0.239-0.344c0.684 0.563 1.503 1.176 2.458 1.838v0c1.02 0.707 1.89 1.266 2.608 1.674v0l-0.324 0.467c-0.756-0.459-1.558-0.753-2.406-0.881v0c-0.717 0.941-1.558 2.107-2.523 3.499v0l-2.998 4.464c-1.297 1.871-2.749 3.01-4.355 3.416-1.606 0.405-3.313 0.03-5.121-1.127v0c-0.54-0.374-1.036-0.795-1.488-1.262-0.456-0.461-0.871-1.016-1.246-1.663-0.375-0.648-0.625-1.318-0.75-2.011-0.126-0.693-0.092-1.469 0.1-2.33 0.202-0.862 0.596-1.716 1.182-2.561v0c0.034-0.049 0.219-0.293 0.555-0.73 0.34-0.443 0.819-1.076 1.438-1.9 0.623-0.828 1.294-1.761 2.012-2.797v0c0.651-0.938 1.292-1.899 1.925-2.883v0c0.085-0.192-0.146-0.57-0.692-1.134v0l-0.836-0.822 0.239-0.343c0.684 0.563 1.675 1.295 2.973 2.195v0c1.391 0.965 2.446 1.651 3.165 2.06v0l-0.324 0.467c-0.964-0.555-1.682-0.79-2.153-0.705v0c-0.718 1.013-1.58 2.245-2.586 3.696z" fill="#301c3b" data-fill-palette-color="primary"></path><path d="M71.992 159.801v0l-1.975 7.409 1.799 0.366c0.607 0.121 1.138 0.111 1.594-0.028 0.456-0.139 0.821-0.386 1.094-0.739 0.268-0.361 0.473-0.692 0.614-0.991 0.137-0.307 0.258-0.659 0.365-1.057v0c0.193-0.725 0.197-1.487 0.011-2.285-0.186-0.798-0.555-1.436-1.108-1.913v0c-0.208-0.172-0.531-0.317-0.967-0.433v0c-0.141-0.038-0.377-0.094-0.708-0.168-0.332-0.068-0.572-0.122-0.719-0.161zM76.895 174.351v0c-0.132 0.494-0.376 0.961-0.735 1.402-0.364 0.439-0.829 0.83-1.395 1.174-0.566 0.344-1.298 0.551-2.195 0.62-0.892 0.072-1.873-0.035-2.945-0.32v0c-0.128-0.034-0.49-0.134-1.085-0.3-0.601-0.167-1.436-0.4-2.503-0.698-1.07-0.292-2.23-0.605-3.481-0.938v0l0.115-0.433 0.514 0.044c0.337 0.049 0.703 0.043 1.097-0.017 0.394-0.06 0.637-0.184 0.728-0.373v0c0.241-0.905 0.708-2.656 1.4-5.254 0.692-2.598 1.198-4.497 1.518-5.696v0c0.508-1.905 0.854-3.204 1.039-3.897v0c0.015-0.209-0.242-0.459-0.769-0.751v0l-0.743-0.498 0.123-0.461c1.078 0.287 2.391 0.644 3.94 1.07 1.551 0.42 2.551 0.69 3 0.81v0c0.693 0.185 1.336 0.531 1.928 1.04 0.593 0.508 1.052 1.17 1.378 1.985 0.332 0.817 0.384 1.652 0.157 2.505v0c-0.005 0.019-0.01 0.038-0.016 0.058v0c-0.276 0.957-0.852 1.752-1.727 2.384-0.883 0.63-1.919 0.808-3.11 0.531v0c3.26 1.199 4.516 3.203 3.767 6.013zM71.556 168.435l-1.814-0.504-1.788 6.789c-0.159 0.597-0.166 0.997-0.021 1.2 0.139 0.202 0.436 0.363 0.891 0.485v0c1.508 0.402 2.671 0.406 3.49 0.013 0.826-0.391 1.413-1.241 1.762-2.55v0c0.727-2.726-0.113-4.537-2.52-5.433z" fill="#301c3b" data-fill-palette-color="primary"></path><path d="M94.05 163.231v0c0 0.02 0.002 0.544 0.004 1.573 0.009 1.036 0.019 2.327 0.029 3.874 0.017 1.553 0.035 2.967 0.055 4.242v0c0.039 2.556 0.087 4.381 0.143 5.476v0c0.022 0.544 0.739 0.805 2.153 0.784v0l0.037 0.447c-0.604-0.011-1.348-0.009-2.231 0.004v0c-2.031 0.031-3.76 0.094-5.186 0.189v0l-0.007-0.448c0 0 0.037-0.001 0.109-0.002v0c1.394-0.021 2.124-0.248 2.191-0.681v0c0.084-0.566 0.052-5.724-0.096-15.475v0c-0.003-0.206-0.344-0.38-1.024-0.523v0l-1.039-0.183-0.006-0.418c0.884 0.06 2.02 0.079 3.407 0.057v0c1.447-0.022 2.575-0.076 3.384-0.161v0l0.009 0.568c-1.293 0.113-1.937 0.338-1.932 0.677z" fill="#301c3b" data-fill-palette-color="primary"></path><path d="M114.345 173.943v0c0.245 0.807 0.688 1.113 1.33 0.918v0c0 0 1.166-0.343 3.496-1.029v0c0.629-0.191 1.075-0.711 1.338-1.56 0.265-0.843 0.309-1.748 0.134-2.715v0l0.591-0.18 0.837 4.305-12.437 3.771-0.13-0.429 0.611-0.217c0.422-0.163 0.821-0.37 1.195-0.622 0.374-0.252 0.541-0.48 0.501-0.683v0c-0.206-0.999-1.102-4.116-2.69-9.351v0c-0.9-2.967-1.461-4.75-1.684-5.348v0c-0.09-0.229-0.52-0.286-1.29-0.171v0l-1.183 0.15-0.147-0.486 6.923-2.12 0.13 0.429c-1.237 0.451-1.806 0.908-1.708 1.371v0c1.253 4.317 2.013 6.913 2.279 7.79v0c0.137 0.451 0.402 1.314 0.796 2.59 0.4 1.273 0.769 2.469 1.108 3.587z" fill="#301c3b" data-fill-palette-color="primary"></path><path d="M130.225 150.439v0c0.011 0.017 0.289 0.461 0.836 1.334 0.555 0.874 1.247 1.965 2.073 3.272 0.836 1.309 1.599 2.5 2.29 3.571v0c1.385 2.148 2.39 3.672 3.017 4.572v0c0.306 0.45 1.053 0.293 2.242-0.473v0l0.268 0.36c-0.519 0.311-1.149 0.705-1.891 1.183v0c-1.708 1.101-3.142 2.068-4.302 2.903v0l-0.242-0.377c0 0 0.031-0.02 0.092-0.059v0c1.172-0.755 1.672-1.334 1.499-1.736v0c-0.228-0.525-2.983-4.886-8.266-13.084v0c-0.112-0.173-0.493-0.14-1.146 0.098v0l-0.978 0.394-0.227-0.352c0.782-0.417 1.756-1.001 2.923-1.753v0c1.217-0.784 2.145-1.426 2.786-1.926v0l0.308 0.477c-1.038 0.779-1.465 1.311-1.282 1.596z" fill="#301c3b" data-fill-palette-color="primary"></path><path d="M153.5 149.553v0c-0.131-0.654-0.404-1.157-0.817-1.511v0l-10.934-9.387c-1.283 1.48-1.928 2.225-1.937 2.235v0c-0.293 0.343-0.428 0.761-0.404 1.254 0.019 0.488 0.158 0.965 0.416 1.429 0.258 0.474 0.53 0.912 0.816 1.314 0.286 0.401 0.586 0.75 0.901 1.045v0l-0.349 0.409-3.918-3.494c1.413-1.561 3.176-3.578 5.29-6.05v0c1.993-2.331 3.504-4.145 4.533-5.44v0l4.041 3.35-0.362 0.424c-2.398-1.823-4.056-2.214-4.973-1.172v0l-2.171 2.493 10.973 9.341c0.5 0.427 1.022 0.638 1.568 0.634v0c0.439 0.008 1.075-0.461 1.91-1.407v0l0.408 0.349-5.623 6.578-0.409-0.349c0.026-0.03 0.063-0.073 0.11-0.129 0.047-0.056 0.084-0.098 0.11-0.129v0c0.632-0.77 0.906-1.366 0.821-1.787z" fill="#301c3b" data-fill-palette-color="primary"></path><path d="M162.856 122.992v0c-3.249 0.101-6.478 0.559-9.688 1.374v0c-0.723 0.187-1.255 0.435-1.596 0.743v0c-0.382 0.356-0.745 0.788-1.087 1.296v0l-0.389-0.153c0.391-0.795 0.901-1.996 1.532-3.603v0c0.675-1.718 1.128-2.973 1.361-3.766v0l0.529 0.207c-0.297 1.01-0.368 1.628-0.214 1.852v0c0.139 0.154 0.325 0.299 0.557 0.433v0l0.297 0.17c2.771-0.281 5.451-0.631 8.04-1.047v0c-3.532-4.318-5.42-6.532-5.662-6.642v0c-0.241-0.095-0.502 0.035-0.784 0.388v0l-1.045 1.408-0.389-0.153c0.391-0.795 0.786-1.703 1.186-2.722v0c0.405-1.032 0.728-1.954 0.969-2.765v0l0.528 0.207c-0.251 0.729-0.333 1.374-0.247 1.936v0c0.044 0.196 0.153 0.481 0.328 0.856v0l0.264 0.553c2.761 3.467 4.557 5.634 5.386 6.501v0c0.661 0.26 2.896 1.098 6.704 2.515v0c0.439 0.172 0.94-0.458 1.503-1.892v0l0.491 0.193-2.802 7.138-0.417-0.164c0.019-0.049 0.057-0.145 0.112-0.288v0c0.51-1.298 0.566-2.032 0.17-2.201v0c-2.031-0.84-3.91-1.632-5.637-2.374z" fill="#301c3b" data-fill-palette-color="primary"></path></g></svg></g></svg></g></svg></g><g></g></svg></g></svg></g></svg></g><defs></defs></svg><rect width="320" height="360" fill="none" stroke="none" visibility="hidden"></rect></g></svg></g></svg>